<mxfile host="app.diagrams.net" modified="2023-09-24T12:27:49.575Z" agent="Mozilla/5.0 (Macintosh; Intel Mac OS X 10.15; rv:109.0) Gecko/20100101 Firefox/117.0" version="21.7.2" etag="CtEdPLqE4pNf1P1XDxxH" type="github">
  <diagram name="第 1 页" id="GG5Avbg_mSabSHZXCFJg">
    <mxGraphModel>
      <root>
        <mxCell id="0" />
        <mxCell id="1" parent="0" />
      </root>
    </mxGraphModel>
  </diagram>
</mxfile>
